<mxfile host="app.diagrams.net" modified="2024-04-04T12:14:05.081Z" agent="Mozilla/5.0 (Windows NT 10.0; Win64; x64) AppleWebKit/537.36 (KHTML, like Gecko) Chrome/123.0.0.0 Safari/537.36" etag="lkHavB8q_nSsEcJDX0Fj" version="24.2.1" type="github">
  <diagram name="Page-1" id="QWwCqenbRuFLhFBcTYjf">
    <mxGraphModel dx="1050" dy="522" grid="1" gridSize="10" guides="1" tooltips="1" connect="1" arrows="1" fold="1" page="1" pageScale="1" pageWidth="850" pageHeight="1100" math="0" shadow="0">
      <root>
        <mxCell id="0" />
        <mxCell id="1" parent="0" />
        <mxCell id="B2gBiRFXmTvVED5xzUu--1" value="Productos" style="shape=table;startSize=30;container=1;collapsible=1;childLayout=tableLayout;fixedRows=1;rowLines=0;fontStyle=1;align=center;resizeLast=1;html=1;" parent="1" vertex="1">
          <mxGeometry x="27" y="289" width="180" height="150" as="geometry" />
        </mxCell>
        <mxCell id="B2gBiRFXmTvVED5xzUu--2" value="" style="shape=tableRow;horizontal=0;startSize=0;swimlaneHead=0;swimlaneBody=0;fillColor=none;collapsible=0;dropTarget=0;points=[[0,0.5],[1,0.5]];portConstraint=eastwest;top=0;left=0;right=0;bottom=1;" parent="B2gBiRFXmTvVED5xzUu--1" vertex="1">
          <mxGeometry y="30" width="180" height="30" as="geometry" />
        </mxCell>
        <mxCell id="B2gBiRFXmTvVED5xzUu--3" value="PK" style="shape=partialRectangle;connectable=0;fillColor=default;top=0;left=0;bottom=0;right=0;fontStyle=1;overflow=hidden;whiteSpace=wrap;html=1;" parent="B2gBiRFXmTvVED5xzUu--2" vertex="1">
          <mxGeometry width="30" height="30" as="geometry">
            <mxRectangle width="30" height="30" as="alternateBounds" />
          </mxGeometry>
        </mxCell>
        <mxCell id="B2gBiRFXmTvVED5xzUu--4" value="ID" style="shape=partialRectangle;connectable=0;fillColor=default;top=0;left=0;bottom=0;right=0;align=left;spacingLeft=6;fontStyle=5;overflow=hidden;whiteSpace=wrap;html=1;" parent="B2gBiRFXmTvVED5xzUu--2" vertex="1">
          <mxGeometry x="30" width="150" height="30" as="geometry">
            <mxRectangle width="150" height="30" as="alternateBounds" />
          </mxGeometry>
        </mxCell>
        <mxCell id="B2gBiRFXmTvVED5xzUu--5" value="" style="shape=tableRow;horizontal=0;startSize=0;swimlaneHead=0;swimlaneBody=0;fillColor=none;collapsible=0;dropTarget=0;points=[[0,0.5],[1,0.5]];portConstraint=eastwest;top=0;left=0;right=0;bottom=0;" parent="B2gBiRFXmTvVED5xzUu--1" vertex="1">
          <mxGeometry y="60" width="180" height="30" as="geometry" />
        </mxCell>
        <mxCell id="B2gBiRFXmTvVED5xzUu--6" value="" style="shape=partialRectangle;connectable=0;fillColor=default;top=0;left=0;bottom=0;right=0;editable=1;overflow=hidden;whiteSpace=wrap;html=1;" parent="B2gBiRFXmTvVED5xzUu--5" vertex="1">
          <mxGeometry width="30" height="30" as="geometry">
            <mxRectangle width="30" height="30" as="alternateBounds" />
          </mxGeometry>
        </mxCell>
        <mxCell id="B2gBiRFXmTvVED5xzUu--7" value="Nombre" style="shape=partialRectangle;connectable=0;fillColor=default;top=0;left=0;bottom=0;right=0;align=left;spacingLeft=6;overflow=hidden;whiteSpace=wrap;html=1;" parent="B2gBiRFXmTvVED5xzUu--5" vertex="1">
          <mxGeometry x="30" width="150" height="30" as="geometry">
            <mxRectangle width="150" height="30" as="alternateBounds" />
          </mxGeometry>
        </mxCell>
        <mxCell id="B2gBiRFXmTvVED5xzUu--8" value="" style="shape=tableRow;horizontal=0;startSize=0;swimlaneHead=0;swimlaneBody=0;fillColor=none;collapsible=0;dropTarget=0;points=[[0,0.5],[1,0.5]];portConstraint=eastwest;top=0;left=0;right=0;bottom=0;" parent="B2gBiRFXmTvVED5xzUu--1" vertex="1">
          <mxGeometry y="90" width="180" height="30" as="geometry" />
        </mxCell>
        <mxCell id="B2gBiRFXmTvVED5xzUu--9" value="" style="shape=partialRectangle;connectable=0;fillColor=default;top=0;left=0;bottom=0;right=0;editable=1;overflow=hidden;whiteSpace=wrap;html=1;" parent="B2gBiRFXmTvVED5xzUu--8" vertex="1">
          <mxGeometry width="30" height="30" as="geometry">
            <mxRectangle width="30" height="30" as="alternateBounds" />
          </mxGeometry>
        </mxCell>
        <mxCell id="B2gBiRFXmTvVED5xzUu--10" value="CÃ³digo" style="shape=partialRectangle;connectable=0;fillColor=default;top=0;left=0;bottom=0;right=0;align=left;spacingLeft=6;overflow=hidden;whiteSpace=wrap;html=1;" parent="B2gBiRFXmTvVED5xzUu--8" vertex="1">
          <mxGeometry x="30" width="150" height="30" as="geometry">
            <mxRectangle width="150" height="30" as="alternateBounds" />
          </mxGeometry>
        </mxCell>
        <mxCell id="B2gBiRFXmTvVED5xzUu--11" value="" style="shape=tableRow;horizontal=0;startSize=0;swimlaneHead=0;swimlaneBody=0;fillColor=none;collapsible=0;dropTarget=0;points=[[0,0.5],[1,0.5]];portConstraint=eastwest;top=0;left=0;right=0;bottom=0;" parent="B2gBiRFXmTvVED5xzUu--1" vertex="1">
          <mxGeometry y="120" width="180" height="30" as="geometry" />
        </mxCell>
        <mxCell id="B2gBiRFXmTvVED5xzUu--12" value="" style="shape=partialRectangle;connectable=0;fillColor=default;top=0;left=0;bottom=0;right=0;editable=1;overflow=hidden;whiteSpace=wrap;html=1;" parent="B2gBiRFXmTvVED5xzUu--11" vertex="1">
          <mxGeometry width="30" height="30" as="geometry">
            <mxRectangle width="30" height="30" as="alternateBounds" />
          </mxGeometry>
        </mxCell>
        <mxCell id="B2gBiRFXmTvVED5xzUu--13" value="PrecioUnitario" style="shape=partialRectangle;connectable=0;fillColor=default;top=0;left=0;bottom=0;right=0;align=left;spacingLeft=6;overflow=hidden;whiteSpace=wrap;html=1;" parent="B2gBiRFXmTvVED5xzUu--11" vertex="1">
          <mxGeometry x="30" width="150" height="30" as="geometry">
            <mxRectangle width="150" height="30" as="alternateBounds" />
          </mxGeometry>
        </mxCell>
        <mxCell id="B2gBiRFXmTvVED5xzUu--14" value="Clientes" style="shape=table;startSize=30;container=1;collapsible=1;childLayout=tableLayout;fixedRows=1;rowLines=0;fontStyle=1;align=center;resizeLast=1;html=1;strokeColor=default;shadow=0;fillStyle=solid;fillColor=default;" parent="1" vertex="1">
          <mxGeometry x="169" y="40" width="180" height="210" as="geometry" />
        </mxCell>
        <mxCell id="B2gBiRFXmTvVED5xzUu--15" value="" style="shape=tableRow;horizontal=0;startSize=0;swimlaneHead=0;swimlaneBody=0;fillColor=none;collapsible=0;dropTarget=0;points=[[0,0.5],[1,0.5]];portConstraint=eastwest;top=0;left=0;right=0;bottom=1;" parent="B2gBiRFXmTvVED5xzUu--14" vertex="1">
          <mxGeometry y="30" width="180" height="30" as="geometry" />
        </mxCell>
        <mxCell id="B2gBiRFXmTvVED5xzUu--16" value="PK" style="shape=partialRectangle;connectable=0;fillColor=default;top=0;left=0;bottom=0;right=0;fontStyle=1;overflow=hidden;whiteSpace=wrap;html=1;" parent="B2gBiRFXmTvVED5xzUu--15" vertex="1">
          <mxGeometry width="30" height="30" as="geometry">
            <mxRectangle width="30" height="30" as="alternateBounds" />
          </mxGeometry>
        </mxCell>
        <mxCell id="B2gBiRFXmTvVED5xzUu--17" value="ID" style="shape=partialRectangle;connectable=0;fillColor=default;top=0;left=0;bottom=0;right=0;align=left;spacingLeft=6;fontStyle=5;overflow=hidden;whiteSpace=wrap;html=1;" parent="B2gBiRFXmTvVED5xzUu--15" vertex="1">
          <mxGeometry x="30" width="150" height="30" as="geometry">
            <mxRectangle width="150" height="30" as="alternateBounds" />
          </mxGeometry>
        </mxCell>
        <mxCell id="B2gBiRFXmTvVED5xzUu--18" value="" style="shape=tableRow;horizontal=0;startSize=0;swimlaneHead=0;swimlaneBody=0;fillColor=none;collapsible=0;dropTarget=0;points=[[0,0.5],[1,0.5]];portConstraint=eastwest;top=0;left=0;right=0;bottom=0;" parent="B2gBiRFXmTvVED5xzUu--14" vertex="1">
          <mxGeometry y="60" width="180" height="30" as="geometry" />
        </mxCell>
        <mxCell id="B2gBiRFXmTvVED5xzUu--19" value="" style="shape=partialRectangle;connectable=0;fillColor=default;top=0;left=0;bottom=0;right=0;editable=1;overflow=hidden;whiteSpace=wrap;html=1;" parent="B2gBiRFXmTvVED5xzUu--18" vertex="1">
          <mxGeometry width="30" height="30" as="geometry">
            <mxRectangle width="30" height="30" as="alternateBounds" />
          </mxGeometry>
        </mxCell>
        <mxCell id="B2gBiRFXmTvVED5xzUu--20" value="Nombre" style="shape=partialRectangle;connectable=0;fillColor=default;top=0;left=0;bottom=0;right=0;align=left;spacingLeft=6;overflow=hidden;whiteSpace=wrap;html=1;" parent="B2gBiRFXmTvVED5xzUu--18" vertex="1">
          <mxGeometry x="30" width="150" height="30" as="geometry">
            <mxRectangle width="150" height="30" as="alternateBounds" />
          </mxGeometry>
        </mxCell>
        <mxCell id="B2gBiRFXmTvVED5xzUu--21" value="" style="shape=tableRow;horizontal=0;startSize=0;swimlaneHead=0;swimlaneBody=0;fillColor=none;collapsible=0;dropTarget=0;points=[[0,0.5],[1,0.5]];portConstraint=eastwest;top=0;left=0;right=0;bottom=0;perimeterSpacing=0;shadow=0;" parent="B2gBiRFXmTvVED5xzUu--14" vertex="1">
          <mxGeometry y="90" width="180" height="30" as="geometry" />
        </mxCell>
        <mxCell id="B2gBiRFXmTvVED5xzUu--22" value="" style="shape=partialRectangle;connectable=0;fillColor=default;top=0;left=0;bottom=0;right=0;editable=1;overflow=hidden;whiteSpace=wrap;html=1;strokeColor=default;perimeterSpacing=0;shadow=0;" parent="B2gBiRFXmTvVED5xzUu--21" vertex="1">
          <mxGeometry width="30" height="30" as="geometry">
            <mxRectangle width="30" height="30" as="alternateBounds" />
          </mxGeometry>
        </mxCell>
        <mxCell id="B2gBiRFXmTvVED5xzUu--23" value="Apellido" style="shape=partialRectangle;connectable=0;fillColor=default;top=0;left=0;bottom=0;right=0;align=left;spacingLeft=6;overflow=hidden;whiteSpace=wrap;html=1;strokeColor=default;perimeterSpacing=1;" parent="B2gBiRFXmTvVED5xzUu--21" vertex="1">
          <mxGeometry x="30" width="150" height="30" as="geometry">
            <mxRectangle width="150" height="30" as="alternateBounds" />
          </mxGeometry>
        </mxCell>
        <mxCell id="B2gBiRFXmTvVED5xzUu--24" value="" style="shape=tableRow;horizontal=0;startSize=0;swimlaneHead=0;swimlaneBody=0;fillColor=none;collapsible=0;dropTarget=0;points=[[0,0.5],[1,0.5]];portConstraint=eastwest;top=0;left=0;right=0;bottom=0;" parent="B2gBiRFXmTvVED5xzUu--14" vertex="1">
          <mxGeometry y="120" width="180" height="30" as="geometry" />
        </mxCell>
        <mxCell id="B2gBiRFXmTvVED5xzUu--25" value="" style="shape=partialRectangle;connectable=0;fillColor=default;top=0;left=0;bottom=0;right=0;editable=1;overflow=hidden;whiteSpace=wrap;html=1;" parent="B2gBiRFXmTvVED5xzUu--24" vertex="1">
          <mxGeometry width="30" height="30" as="geometry">
            <mxRectangle width="30" height="30" as="alternateBounds" />
          </mxGeometry>
        </mxCell>
        <mxCell id="B2gBiRFXmTvVED5xzUu--26" value="DNI" style="shape=partialRectangle;connectable=0;fillColor=default;top=0;left=0;bottom=0;right=0;align=left;spacingLeft=6;overflow=hidden;whiteSpace=wrap;html=1;" parent="B2gBiRFXmTvVED5xzUu--24" vertex="1">
          <mxGeometry x="30" width="150" height="30" as="geometry">
            <mxRectangle width="150" height="30" as="alternateBounds" />
          </mxGeometry>
        </mxCell>
        <mxCell id="rNrJbd59Qk428UTggTAw-11" style="shape=tableRow;horizontal=0;startSize=0;swimlaneHead=0;swimlaneBody=0;fillColor=none;collapsible=0;dropTarget=0;points=[[0,0.5],[1,0.5]];portConstraint=eastwest;top=0;left=0;right=0;bottom=0;" vertex="1" parent="B2gBiRFXmTvVED5xzUu--14">
          <mxGeometry y="150" width="180" height="30" as="geometry" />
        </mxCell>
        <mxCell id="rNrJbd59Qk428UTggTAw-12" style="shape=partialRectangle;connectable=0;fillColor=default;top=0;left=0;bottom=0;right=0;editable=1;overflow=hidden;whiteSpace=wrap;html=1;" vertex="1" parent="rNrJbd59Qk428UTggTAw-11">
          <mxGeometry width="30" height="30" as="geometry">
            <mxRectangle width="30" height="30" as="alternateBounds" />
          </mxGeometry>
        </mxCell>
        <mxCell id="rNrJbd59Qk428UTggTAw-13" value="DirecciÃ³n" style="shape=partialRectangle;connectable=0;fillColor=default;top=0;left=0;bottom=0;right=0;align=left;spacingLeft=6;overflow=hidden;whiteSpace=wrap;html=1;" vertex="1" parent="rNrJbd59Qk428UTggTAw-11">
          <mxGeometry x="30" width="150" height="30" as="geometry">
            <mxRectangle width="150" height="30" as="alternateBounds" />
          </mxGeometry>
        </mxCell>
        <mxCell id="rNrJbd59Qk428UTggTAw-8" style="shape=tableRow;horizontal=0;startSize=0;swimlaneHead=0;swimlaneBody=0;fillColor=none;collapsible=0;dropTarget=0;points=[[0,0.5],[1,0.5]];portConstraint=eastwest;top=0;left=0;right=0;bottom=0;" vertex="1" parent="B2gBiRFXmTvVED5xzUu--14">
          <mxGeometry y="180" width="180" height="30" as="geometry" />
        </mxCell>
        <mxCell id="rNrJbd59Qk428UTggTAw-9" style="shape=partialRectangle;connectable=0;fillColor=default;top=0;left=0;bottom=0;right=0;editable=1;overflow=hidden;whiteSpace=wrap;html=1;" vertex="1" parent="rNrJbd59Qk428UTggTAw-8">
          <mxGeometry width="30" height="30" as="geometry">
            <mxRectangle width="30" height="30" as="alternateBounds" />
          </mxGeometry>
        </mxCell>
        <mxCell id="rNrJbd59Qk428UTggTAw-10" value="Fecha de nacimiento" style="shape=partialRectangle;connectable=0;fillColor=default;top=0;left=0;bottom=0;right=0;align=left;spacingLeft=6;overflow=hidden;whiteSpace=wrap;html=1;" vertex="1" parent="rNrJbd59Qk428UTggTAw-8">
          <mxGeometry x="30" width="150" height="30" as="geometry">
            <mxRectangle width="150" height="30" as="alternateBounds" />
          </mxGeometry>
        </mxCell>
        <mxCell id="B2gBiRFXmTvVED5xzUu--52" value="" style="edgeStyle=orthogonalEdgeStyle;fontSize=12;html=1;endArrow=ERoneToMany;rounded=0;entryX=1.013;entryY=0.099;entryDx=0;entryDy=0;entryPerimeter=0;exitX=-0.011;exitY=0.169;exitDx=0;exitDy=0;exitPerimeter=0;" parent="1" source="B2gBiRFXmTvVED5xzUu--39" target="B2gBiRFXmTvVED5xzUu--1" edge="1">
          <mxGeometry width="100" height="100" relative="1" as="geometry">
            <mxPoint x="499" y="269" as="sourcePoint" />
            <mxPoint x="399" y="369" as="targetPoint" />
          </mxGeometry>
        </mxCell>
        <mxCell id="B2gBiRFXmTvVED5xzUu--58" value="" style="edgeStyle=orthogonalEdgeStyle;fontSize=12;html=1;endArrow=ERoneToMany;rounded=0;exitX=1.001;exitY=0.117;exitDx=0;exitDy=0;exitPerimeter=0;entryX=0;entryY=0;entryDx=0;entryDy=0;entryPerimeter=0;" parent="1" source="B2gBiRFXmTvVED5xzUu--14" edge="1" target="B2gBiRFXmTvVED5xzUu--2">
          <mxGeometry width="100" height="100" relative="1" as="geometry">
            <mxPoint x="119" y="69" as="sourcePoint" />
            <mxPoint x="19" y="269" as="targetPoint" />
            <Array as="points">
              <mxPoint x="349" y="79" />
              <mxPoint x="380" y="79" />
              <mxPoint x="380" y="269" />
              <mxPoint x="10" y="269" />
              <mxPoint x="10" y="319" />
            </Array>
          </mxGeometry>
        </mxCell>
        <mxCell id="B2gBiRFXmTvVED5xzUu--39" value="Proveedor" style="shape=table;startSize=31;container=1;collapsible=1;childLayout=tableLayout;fixedRows=1;rowLines=0;fontStyle=1;align=center;resizeLast=1;html=1;" parent="1" vertex="1">
          <mxGeometry x="239" y="289" width="180" height="141" as="geometry">
            <mxRectangle x="260" y="289" width="100" height="30" as="alternateBounds" />
          </mxGeometry>
        </mxCell>
        <mxCell id="B2gBiRFXmTvVED5xzUu--40" value="" style="shape=tableRow;horizontal=0;startSize=0;swimlaneHead=0;swimlaneBody=0;fillColor=none;collapsible=0;dropTarget=0;points=[[0,0.5],[1,0.5]];portConstraint=eastwest;top=0;left=0;right=0;bottom=1;" parent="B2gBiRFXmTvVED5xzUu--39" vertex="1">
          <mxGeometry y="31" width="180" height="30" as="geometry" />
        </mxCell>
        <mxCell id="B2gBiRFXmTvVED5xzUu--41" value="PK" style="shape=partialRectangle;connectable=0;fillColor=default;top=0;left=0;bottom=0;right=0;fontStyle=1;overflow=hidden;whiteSpace=wrap;html=1;" parent="B2gBiRFXmTvVED5xzUu--40" vertex="1">
          <mxGeometry width="30" height="30" as="geometry">
            <mxRectangle width="30" height="30" as="alternateBounds" />
          </mxGeometry>
        </mxCell>
        <mxCell id="B2gBiRFXmTvVED5xzUu--42" value="NIF" style="shape=partialRectangle;connectable=0;fillColor=default;top=0;left=0;bottom=0;right=0;align=left;spacingLeft=6;fontStyle=5;overflow=hidden;whiteSpace=wrap;html=1;" parent="B2gBiRFXmTvVED5xzUu--40" vertex="1">
          <mxGeometry x="30" width="150" height="30" as="geometry">
            <mxRectangle width="150" height="30" as="alternateBounds" />
          </mxGeometry>
        </mxCell>
        <mxCell id="B2gBiRFXmTvVED5xzUu--43" value="" style="shape=tableRow;horizontal=0;startSize=0;swimlaneHead=0;swimlaneBody=0;fillColor=none;collapsible=0;dropTarget=0;points=[[0,0.5],[1,0.5]];portConstraint=eastwest;top=0;left=0;right=0;bottom=0;" parent="B2gBiRFXmTvVED5xzUu--39" vertex="1">
          <mxGeometry y="61" width="180" height="30" as="geometry" />
        </mxCell>
        <mxCell id="B2gBiRFXmTvVED5xzUu--44" value="" style="shape=partialRectangle;connectable=0;top=0;left=0;bottom=0;right=0;editable=1;overflow=hidden;html=1;strokeWidth=1;align=center;verticalAlign=middle;textShadow=0;gradientColor=none;strokeColor=default;perimeterSpacing=1;spacing=2;whiteSpace=wrap;labelBorderColor=none;" parent="B2gBiRFXmTvVED5xzUu--43" vertex="1">
          <mxGeometry width="30" height="30" as="geometry">
            <mxRectangle width="30" height="30" as="alternateBounds" />
          </mxGeometry>
        </mxCell>
        <mxCell id="B2gBiRFXmTvVED5xzUu--45" value="Nombre" style="shape=partialRectangle;connectable=0;fillColor=default;top=0;left=0;bottom=0;right=0;align=left;spacingLeft=6;overflow=hidden;whiteSpace=wrap;html=1;strokeWidth=1;strokeColor=default;verticalAlign=middle;perimeterSpacing=1;labelBorderColor=none;" parent="B2gBiRFXmTvVED5xzUu--43" vertex="1">
          <mxGeometry x="30" width="150" height="30" as="geometry">
            <mxRectangle width="150" height="30" as="alternateBounds" />
          </mxGeometry>
        </mxCell>
        <mxCell id="B2gBiRFXmTvVED5xzUu--46" value="" style="shape=tableRow;horizontal=0;startSize=0;swimlaneHead=0;swimlaneBody=0;fillColor=none;collapsible=0;dropTarget=0;points=[[0,0.5],[1,0.5]];portConstraint=eastwest;top=0;left=0;right=0;bottom=0;" parent="B2gBiRFXmTvVED5xzUu--39" vertex="1">
          <mxGeometry y="91" width="180" height="30" as="geometry" />
        </mxCell>
        <mxCell id="B2gBiRFXmTvVED5xzUu--47" value="" style="shape=partialRectangle;connectable=0;fillColor=default;top=0;left=0;bottom=0;right=0;editable=1;overflow=hidden;whiteSpace=wrap;html=1;" parent="B2gBiRFXmTvVED5xzUu--46" vertex="1">
          <mxGeometry width="30" height="30" as="geometry">
            <mxRectangle width="30" height="30" as="alternateBounds" />
          </mxGeometry>
        </mxCell>
        <mxCell id="B2gBiRFXmTvVED5xzUu--48" value="DirecciÃ³n" style="shape=partialRectangle;connectable=0;fillColor=default;top=0;left=0;bottom=0;right=0;align=left;spacingLeft=6;overflow=hidden;whiteSpace=wrap;html=1;" parent="B2gBiRFXmTvVED5xzUu--46" vertex="1">
          <mxGeometry x="30" width="150" height="30" as="geometry">
            <mxRectangle width="150" height="30" as="alternateBounds" />
          </mxGeometry>
        </mxCell>
        <mxCell id="B2gBiRFXmTvVED5xzUu--49" value="" style="shape=tableRow;horizontal=0;startSize=0;swimlaneHead=0;swimlaneBody=0;fillColor=none;collapsible=0;dropTarget=0;points=[[0,0.5],[1,0.5]];portConstraint=eastwest;top=0;left=0;right=0;bottom=0;" parent="B2gBiRFXmTvVED5xzUu--39" vertex="1">
          <mxGeometry y="121" width="180" height="20" as="geometry" />
        </mxCell>
        <mxCell id="B2gBiRFXmTvVED5xzUu--50" value="" style="shape=partialRectangle;connectable=0;fillColor=default;top=0;left=0;bottom=0;right=0;editable=1;overflow=hidden;whiteSpace=wrap;html=1;" parent="B2gBiRFXmTvVED5xzUu--49" vertex="1">
          <mxGeometry width="30" height="20" as="geometry">
            <mxRectangle width="30" height="20" as="alternateBounds" />
          </mxGeometry>
        </mxCell>
        <mxCell id="B2gBiRFXmTvVED5xzUu--51" value="" style="shape=partialRectangle;connectable=0;fillColor=default;top=0;left=0;bottom=0;right=0;align=left;spacingLeft=6;overflow=hidden;whiteSpace=wrap;html=1;" parent="B2gBiRFXmTvVED5xzUu--49" vertex="1">
          <mxGeometry x="30" width="150" height="20" as="geometry">
            <mxRectangle width="150" height="20" as="alternateBounds" />
          </mxGeometry>
        </mxCell>
        <mxCell id="rNrJbd59Qk428UTggTAw-33" value="&lt;div&gt;Una empresa vende productos a varios clientes. Se necesita conocer los datos&lt;/div&gt;&lt;div&gt;personales de los clientes (nombre, apellidos, dni, direcciÃ³n y fecha de nacimiento).&lt;/div&gt;&lt;div&gt;Cada producto tiene un nombre y un cÃ³digo, asÃ­ como un precio unitario. Un cliente&lt;/div&gt;&lt;div&gt;puede comprar varios productos a la empresa, y un mismo producto puede ser&lt;/div&gt;&lt;div&gt;comprado por varios clientes.&lt;/div&gt;&lt;div&gt;Los productos son suministrados por diferentes proveedores. Se debe tener en cuenta&lt;/div&gt;&lt;div&gt;que un producto sÃ³lo puede ser suministrado por un proveedor, y que un proveedor&lt;/div&gt;&lt;div&gt;puede suministrar diferentes productos. De cada proveedor se desea conocer el NIF,&lt;/div&gt;&lt;div&gt;nombre y direcciÃ³n.&lt;/div&gt;" style="text;html=1;align=left;verticalAlign=middle;whiteSpace=wrap;rounded=0;fontFamily=Helvetica;fontSize=12;fontColor=default;fontStyle=1;fillColor=default;strokeColor=default;perimeterSpacing=0;glass=0;shadow=1;spacingTop=0;spacing=15;" vertex="1" parent="1">
          <mxGeometry x="490" y="40" width="350" height="280" as="geometry" />
        </mxCell>
      </root>
    </mxGraphModel>
  </diagram>
</mxfile>
